<svg width="16" height="16" viewBox="0 0 16 16" fill="none" xmlns="http://www.w3.org/2000/svg">
<path d="M13.9273 1.25375L13.998 1.25L14.0847 1.255L14.1447 1.265L14.2267 1.28688L14.298 1.31563L14.3647 1.35125L14.4247 1.39313L14.4793 1.44L14.514 1.47687L14.5687 1.54938L14.6033 1.60938C14.6344 1.67188 14.6544 1.73771 14.6633 1.80687L14.6667 1.87312C14.6667 1.92021 14.6613 1.96604 14.6507 2.01062L14.6273 2.0875L10.2727 13.3856C10.1901 13.5541 10.0577 13.6968 9.89122 13.7969C9.72472 13.8969 9.53109 13.9501 9.33333 13.95C9.15525 13.9503 8.9801 13.9075 8.82487 13.8257C8.66963 13.7439 8.53958 13.6259 8.44733 13.4831L8.40399 13.4037L6.16933 9.215L1.72266 7.13C1.55813 7.05945 1.41624 6.94965 1.31118 6.81156C1.20612 6.67347 1.14157 6.51194 1.124 6.34312L1.12 6.25C1.12 5.9 1.32066 5.58 1.68066 5.39375L1.774 5.35L13.7853 1.28375L13.856 1.265L13.9273 1.25375Z" fill="#4FA1E2"/>
</svg>
